<svg xmlns="http://www.w3.org/2000/svg">
    <symbol id="facebook" viewBox="0 0 12 22">
        <path d="M12 4V0H8C5.79086 0 4 1.79086 4 4V8H0V12H4V22H8V12H12V8H8V4H12Z"/>
    </symbol>
    <symbol id="twitter" viewBox="0 0 17 16">
        <path d="M10.95 1.14409C12.635 0.648089 13.934 1.41409 14.527 2.32309C15.2 2.09209 15.858 1.84209 16.538 1.61509C16.5249 2.30145 16.2117 2.94761 15.681 3.38309C16.366 3.55309 16.985 2.89209 16.985 2.89209C16.816 3.89209 15.979 4.68009 15.422 4.91609C15.191 11.6661 12.247 16.1331 5.34498 15.9981H4.89898C4.48898 15.9981 0.734977 15.5381 0.000976562 14.1111C2.27198 14.3071 3.89398 13.6891 4.69398 12.9341C3.73398 12.6341 2.01498 12.4571 1.71498 9.98409C2.06398 10.0901 2.27898 10.2121 2.90498 10.1031C1.70498 9.24709 0.373977 8.53009 0.447977 6.33009C0.732977 6.65809 1.51498 6.86609 1.78798 6.80209C1.08498 6.56109 -0.182023 3.44209 0.893977 1.85009C2.71198 3.70409 4.62898 5.45609 8.04598 5.62309C8.25398 3.33009 9.18298 1.79309 10.95 1.14409Z"/>
    </symbol>
    <symbol id="youtube" viewBox="0 0 20 16">
        <path fill-rule="evenodd" clip-rule="evenodd" d="M3 0H17C18.65 0 20 1.35 20 3V13C20 14.65 18.65 16 17 16H3C1.35 16 0 14.65 0 13V3C0 1.35 1.35 0 3 0ZM6.027 4.002V11.998L15.014 8L6.027 4.002Z"/>
    </symbol>
    <symbol id="arrow_up" viewBox="0 0 11 10">
        <path d="M5.5 0L0 10H11L5.5 0Z"/>
    </symbol>
    <symbol id="arrow_down" viewBox="0 0 11 10">
        <path d="M5.5 10L0 0H11"/>
    </symbol>
    <symbol id="star" viewBox="0 0 19 17">
        <path d="M9.002 0L11.128 6.494H18.005L12.441 10.506L14.566 17L9.002 12.987L3.438 17L5.564 10.506L0 6.494H6.878L9.002 0Z"/>
    </symbol>
</svg>